<svg width="102" height="61" viewBox="0 0 102 61" fill="none" xmlns="http://www.w3.org/2000/svg">
<path d="M46.652 23.6055L47.3256 28.6517C47.4885 29.8412 47.6524 32.2029 47.8153 33.4095H47.8565C47.9792 31.9486 48.142 30.5038 48.2848 29.06L48.9383 23.6055H51.102L49.3868 35.7029H46.1211L44.4883 23.6055H46.652Z" fill="white"/>
<path d="M53.9332 33.7522C53.9332 34.3635 54.1574 34.5003 54.6069 34.5003C55.0352 34.5003 55.2604 34.3645 55.2604 33.7522V32.4783C55.2604 30.7791 51.7705 29.1141 51.7705 27.1435V25.4101C51.7705 23.8296 53.2606 23.3711 54.5868 23.3711C55.934 23.3711 57.4231 23.8296 57.4231 25.4101V27.9589H55.2594V25.5629C55.2594 24.9516 55.0352 24.8149 54.6059 24.8149C54.1564 24.8149 53.9322 24.9506 53.9322 25.5629V27.058C53.9322 27.9247 57.4221 30.5408 57.4221 31.7645V33.905C57.4221 35.4856 55.932 35.9441 54.5858 35.9441C53.2596 35.9441 51.7695 35.4856 51.7695 33.905V31.118H53.9332V33.7522Z" fill="white"/>
<path d="M50.9511 13.4257C53.5043 13.4257 55.5741 11.3559 55.5741 8.80268C55.5741 6.24947 53.5043 4.17969 50.9511 4.17969C48.3979 4.17969 46.3281 6.24947 46.3281 8.80268C46.3281 11.3559 48.3979 13.4257 50.9511 13.4257Z" fill="white"/>
<path d="M50.3709 3.11516H49.0779C48.9975 3.11516 48.9251 3.06489 48.8969 2.98948L47.9378 0.384402C47.8915 0.258723 47.985 0.125 48.1187 0.125H49.097C49.1845 0.125 49.2609 0.183315 49.283 0.267772L49.7425 1.97399H49.7546L50.2432 0.265761C50.2673 0.183315 50.3428 0.126005 50.4282 0.126005H51.3371C51.4236 0.126005 51.499 0.183315 51.5221 0.265761L52.0108 1.97399H52.0228L52.4823 0.267772C52.5055 0.183315 52.5809 0.125 52.6683 0.125H53.6466C53.7803 0.125 53.8738 0.258723 53.8276 0.384402L52.8684 2.98948C52.8403 3.06489 52.7679 3.11516 52.6874 3.11516H51.3944H50.3709Z" fill="white"/>
<path d="M4.98237 60.578C7.53557 60.578 9.60536 58.5082 9.60536 55.955C9.60536 53.4018 7.53557 51.332 4.98237 51.332C2.42916 51.332 0.359375 53.4018 0.359375 55.955C0.359375 58.5082 2.42916 60.578 4.98237 60.578Z" fill="white"/>
<path d="M22.8624 60.5595H17.2752C16.2647 60.5595 15.4453 59.7401 15.4453 58.7296V53.1424C15.4453 52.1319 16.2647 51.3125 17.2752 51.3125H22.8624C23.8729 51.3125 24.6923 52.1319 24.6923 53.1424V58.7296C24.6923 59.7401 23.8729 60.5595 22.8624 60.5595Z" fill="white"/>
<path d="M97.8162 51.3125H94.5908C93.9373 51.3125 93.333 51.6614 93.0062 52.2274L91.3935 55.0215C91.0667 55.5876 91.0667 56.2854 91.3935 56.8514L93.0062 59.6455C93.333 60.2116 93.9373 60.5605 94.5908 60.5605H97.8162C98.4698 60.5605 99.074 60.2116 99.4008 59.6455L101.014 56.8514C101.34 56.2854 101.34 55.5876 101.014 55.0215L99.4008 52.2274C99.074 51.6614 98.4708 51.3125 97.8162 51.3125Z" fill="white"/>
<path d="M80.7833 51.9828L76.1955 59.9298C76.0286 60.2183 76.2368 60.5793 76.5706 60.5793H85.7472C86.081 60.5793 86.2891 60.2183 86.1222 59.9298L81.5344 51.9828C81.3665 51.6932 80.9502 51.6932 80.7833 51.9828Z" fill="white"/>
<path d="M5.47318 48.3152C5.47318 46.5999 5.46413 44.8847 5.47318 43.1694C5.4772 42.36 5.96684 41.8875 6.76616 41.8844C7.43679 41.8814 8.10842 41.8844 8.78005 41.8844C11.0212 41.8844 13.2623 41.8844 15.5034 41.8844C16.3178 41.8844 17.1332 41.8844 17.9476 41.8844C18.7087 41.8844 19.5191 42.0091 19.5684 42.9824C19.6569 44.7509 19.5684 46.5446 19.5684 48.3152C19.5684 48.9496 20.5547 48.9506 20.5547 48.3152C20.5547 46.5527 20.611 44.7821 20.5547 43.0206C20.5155 41.794 19.6066 40.9132 18.383 40.8981C17.7415 40.8901 17.1 40.8981 16.4596 40.8981C14.0948 40.8981 11.73 40.8981 9.36521 40.8981C8.5478 40.8981 7.73038 40.8981 6.91396 40.8981C5.90451 40.8981 4.94633 41.2792 4.59744 42.3228C4.46674 42.7149 4.48986 43.1292 4.48986 43.5364C4.48986 44.1406 4.48986 44.7449 4.48986 45.3492C4.48986 46.3375 4.48986 47.3269 4.48986 48.3152C4.48785 48.9496 5.47318 48.9506 5.47318 48.3152Z" fill="white"/>
<path d="M81.6372 48.3152C81.6372 46.5999 81.6282 44.8847 81.6372 43.1694C81.6413 42.36 82.1309 41.8875 82.9302 41.8844C83.6009 41.8814 84.2725 41.8844 84.9441 41.8844C87.1852 41.8844 89.4263 41.8844 91.6675 41.8844C92.4819 41.8844 93.2973 41.8844 94.1117 41.8844C94.8728 41.8844 95.6832 42.0091 95.7324 42.9824C95.8209 44.7509 95.7324 46.5446 95.7324 48.3152C95.7324 48.9496 96.7188 48.9506 96.7188 48.3152C96.7188 46.5527 96.7751 44.7821 96.7188 43.0206C96.6796 41.794 95.7706 40.9132 94.547 40.8981C93.9056 40.8901 93.2641 40.8981 92.6236 40.8981C90.2588 40.8981 87.8941 40.8981 85.5293 40.8981C84.7119 40.8981 83.8944 40.8981 83.078 40.8981C82.0686 40.8981 81.1104 41.2792 80.7615 42.3228C80.6308 42.7149 80.6539 43.1292 80.6539 43.5364C80.6539 44.1406 80.6539 44.7449 80.6539 45.3492C80.6539 46.3375 80.6539 47.3269 80.6539 48.3152C80.6519 48.9496 81.6372 48.9506 81.6372 48.3152Z" fill="white"/>
<path d="M12.7949 38.4804C15.3481 38.4804 17.4179 36.4106 17.4179 33.8574C17.4179 31.3042 15.3481 29.2344 12.7949 29.2344C10.2417 29.2344 8.17188 31.3042 8.17188 33.8574C8.17188 36.4106 10.2417 38.4804 12.7949 38.4804Z" fill="white"/>
<path d="M88.3419 29.889L83.7541 37.836C83.5872 38.1246 83.7953 38.4855 84.1292 38.4855H93.3058C93.6396 38.4855 93.8477 38.1246 93.6808 37.836L89.093 29.889C88.9251 29.5995 88.5088 29.5995 88.3419 29.889Z" fill="white"/>
<path d="M13.3085 23.3418C13.3085 21.7934 13.3085 20.245 13.3085 18.6967C13.3085 17.8913 13.3457 16.9683 14.4065 16.91C14.4648 16.907 14.5231 16.91 14.5814 16.91C15.8654 16.904 17.1503 16.91 18.4342 16.91C21.0755 16.91 23.7158 16.91 26.3571 16.91C29.9364 16.91 33.5148 16.91 37.0941 16.91C41.147 16.91 45.1999 16.91 49.2528 16.91C53.358 16.91 57.4632 16.91 61.5684 16.91C65.2926 16.91 69.0157 16.91 72.7398 16.91C75.6475 16.91 78.5563 16.91 81.464 16.91C83.1219 16.91 84.7799 16.91 86.4389 16.91C86.7023 16.91 86.9878 16.8808 87.2503 16.916C88.2517 17.0487 88.2105 18.012 88.2105 18.768C88.2105 19.7302 88.2105 20.6924 88.2105 21.6546C88.2105 22.2167 88.2105 22.7797 88.2105 23.3418C88.2105 23.9762 89.1968 23.9772 89.1968 23.3418C89.1968 21.7602 89.1968 20.1777 89.1968 18.5961C89.1968 17.7254 89.1143 16.8969 88.3422 16.3299C87.9541 16.0453 87.5026 15.9307 87.0281 15.9247C85.8266 15.9096 84.6241 15.9247 83.4236 15.9247C80.7843 15.9247 78.146 15.9247 75.5068 15.9247C71.8912 15.9247 68.2757 15.9247 64.6601 15.9247C60.5459 15.9247 56.4317 15.9247 52.3174 15.9247C48.1308 15.9247 43.9452 15.9247 39.7585 15.9247C35.9771 15.9247 32.1946 15.9247 28.4132 15.9247C25.4964 15.9247 22.5797 15.9247 19.6639 15.9247C18.0733 15.9247 16.4827 15.9247 14.8931 15.9247C14.2386 15.9247 13.6263 15.9528 13.0793 16.4073C12.3614 17.0035 12.3242 17.8149 12.3242 18.6625C12.3242 19.6277 12.3242 20.5939 12.3242 21.5591C12.3242 22.1533 12.3242 22.7465 12.3242 23.3408C12.3232 23.9762 13.3085 23.9772 13.3085 23.3418Z" fill="white"/>
<path d="M12.0193 28.0058H10.7264C10.6459 28.0058 10.5735 27.9555 10.5454 27.8801L9.58619 25.275C9.53994 25.1493 9.63345 25.0156 9.76717 25.0156H10.7455C10.8329 25.0156 10.9093 25.0739 10.9315 25.1584L11.3909 26.8646H11.403L11.8917 25.1564C11.9158 25.0739 11.9912 25.0166 12.0767 25.0166H12.9856C13.072 25.0166 13.1474 25.0739 13.1706 25.1564L13.6592 26.8646H13.6713L14.1308 25.1584C14.1539 25.0739 14.2293 25.0156 14.3168 25.0156H15.2951C15.4288 25.0156 15.5223 25.1493 15.476 25.275L14.5168 27.8801C14.4887 27.9555 14.4163 28.0058 14.3359 28.0058H13.0429H12.0193Z" fill="white"/>
<path d="M88.2108 28.0058H86.9178C86.8373 28.0058 86.7649 27.9555 86.7368 27.8801L85.7776 25.275C85.7314 25.1493 85.8249 25.0156 85.9586 25.0156H86.9369C87.0243 25.0156 87.1008 25.0739 87.1229 25.1584L87.5824 26.8646H87.5944L88.0831 25.1564C88.1072 25.0739 88.1826 25.0166 88.2681 25.0166H89.177C89.2634 25.0166 89.3389 25.0739 89.362 25.1564L89.8506 26.8646H89.8627L90.3222 25.1584C90.3453 25.0739 90.4207 25.0156 90.5082 25.0156H91.4865C91.6202 25.0156 91.7137 25.1493 91.6674 25.275L90.7083 27.8801C90.6801 27.9555 90.6077 28.0058 90.5273 28.0058H89.2343H88.2108Z" fill="white"/>
</svg>
