<svg width="118" height="47" viewBox="0 0 118 47" fill="none" xmlns="http://www.w3.org/2000/svg">
<path d="M113.462 20.5425H98.0456C96.8576 20.5425 95.8945 19.5795 95.8945 18.3914V2.97531C95.8945 1.78727 96.8576 0.824219 98.0456 0.824219H113.462C114.65 0.824219 115.613 1.78727 115.613 2.97531V18.3914C115.613 19.5795 114.65 20.5425 113.462 20.5425Z" fill="white"/>
<path d="M65.0724 14.3906V13.6659L67.7943 10.6862C68.1137 10.3373 68.3768 10.0339 68.5835 9.77623C68.7902 9.51585 68.9432 9.27158 69.0425 9.04341C69.1445 8.81255 69.1955 8.57096 69.1955 8.31863C69.1955 8.02872 69.1257 7.77774 68.9862 7.56567C68.8492 7.35361 68.6613 7.18986 68.4224 7.07444C68.1835 6.95901 67.9151 6.9013 67.6171 6.9013C67.3004 6.9013 67.0239 6.96706 66.7877 7.0986C66.5541 7.22745 66.3729 7.40864 66.2441 7.64218C66.1179 7.87571 66.0548 8.14952 66.0548 8.46359H65.1046C65.1046 7.9804 65.216 7.55628 65.4388 7.19121C65.6616 6.82614 65.9649 6.54159 66.3488 6.33758C66.7353 6.13357 67.1688 6.03157 67.6493 6.03157C68.1325 6.03157 68.5607 6.13357 68.9338 6.33758C69.3069 6.54159 69.5995 6.81674 69.8116 7.16302C70.0237 7.5093 70.1297 7.89451 70.1297 8.31863C70.1297 8.62196 70.0747 8.91858 69.9646 9.20849C69.8572 9.49572 69.6693 9.8165 69.4009 10.1708C69.1351 10.5225 68.766 10.952 68.2936 11.4593L66.4414 13.4404V13.5048H70.2746V14.3906H65.0724ZM78.6216 6.14431V14.3906H77.6552L73.1617 7.91598H73.0811V14.3906H72.0825V6.14431H73.0489L77.5586 12.6351H77.6391V6.14431H78.6216ZM83.1645 14.3906H80.6198V6.14431H83.2773C84.0772 6.14431 84.7617 6.3094 85.3308 6.63957C85.8999 6.96706 86.3361 7.43817 86.6394 8.05288C86.9428 8.66491 87.0944 9.39774 87.0944 10.2514C87.0944 11.1104 86.9414 11.8499 86.6354 12.47C86.3294 13.0874 85.8838 13.5625 85.2986 13.8954C84.7134 14.2255 84.0021 14.3906 83.1645 14.3906ZM81.6184 13.5048H83.1001C83.7819 13.5048 84.347 13.3733 84.7953 13.1102C85.2436 12.8471 85.5778 12.4727 85.7979 11.9868C86.018 11.5009 86.1281 10.9224 86.1281 10.2514C86.1281 9.58564 86.0193 9.01254 85.8019 8.53204C85.5845 8.04886 85.2597 7.67842 84.8275 7.42072C84.3953 7.16034 83.8571 7.03015 83.2129 7.03015H81.6184V13.5048Z" fill="white"/>
<path d="M42.1841 27.7625L31.682 45.9532C31.4865 46.2928 31.7314 46.7165 32.1226 46.7165H53.1277C53.5199 46.7165 53.7648 46.2917 53.5682 45.9532L43.0662 27.7625C42.8696 27.4229 42.3796 27.4229 42.1841 27.7625Z" fill="white"/>
<path d="M4.83138 40.851C4.29988 40.851 3.82609 40.7598 3.41002 40.5772C2.99663 40.3947 2.6678 40.141 2.42352 39.8162C2.18193 39.4887 2.0504 39.1089 2.02892 38.6767H3.04361C3.06508 38.9425 3.15635 39.172 3.31741 39.3652C3.47847 39.5558 3.68919 39.7035 3.94957 39.8082C4.20995 39.9128 4.49852 39.9652 4.81527 39.9652C5.16961 39.9652 5.48368 39.9034 5.75748 39.78C6.03128 39.6565 6.24603 39.4847 6.40172 39.2646C6.55742 39.0445 6.63526 38.7894 6.63526 38.4995C6.63526 38.1962 6.5601 37.9291 6.40978 37.6983C6.25945 37.4647 6.03934 37.2822 5.74943 37.1507C5.45952 37.0191 5.10518 36.9534 4.68643 36.9534H4.02608V36.0675H4.68643C5.01392 36.0675 5.30114 36.0085 5.5481 35.8904C5.79775 35.7722 5.99236 35.6058 6.13195 35.3911C6.27422 35.1763 6.34535 34.924 6.34535 34.6341C6.34535 34.3549 6.28361 34.112 6.16013 33.9053C6.03665 33.6986 5.86217 33.5375 5.63668 33.4221C5.41388 33.3067 5.15082 33.249 4.84749 33.249C4.56295 33.249 4.29451 33.3013 4.04218 33.406C3.79254 33.508 3.58853 33.657 3.43015 33.8529C3.27178 34.0462 3.18588 34.2797 3.17245 34.5535H2.20609C2.2222 34.1214 2.35239 33.7429 2.59666 33.4181C2.84094 33.0906 3.16037 32.8356 3.55497 32.653C3.95226 32.4705 4.38846 32.3792 4.86359 32.3792C5.37362 32.3792 5.81117 32.4826 6.17624 32.6893C6.54131 32.8933 6.82182 33.1631 7.01778 33.4986C7.21374 33.8341 7.31172 34.1965 7.31172 34.5858C7.31172 35.0502 7.18958 35.4461 6.9453 35.7736C6.70371 36.1011 6.37488 36.3279 5.95881 36.4541V36.5185C6.47957 36.6044 6.88625 36.8258 7.17884 37.1829C7.47144 37.5372 7.61773 37.9761 7.61773 38.4995C7.61773 38.9478 7.4956 39.3505 7.25132 39.7075C7.00973 40.0618 6.67955 40.341 6.2608 40.545C5.84204 40.749 5.36557 40.851 4.83138 40.851ZM9.40953 40.7383V32.492H12.1959C12.8401 32.492 13.3689 32.602 13.7823 32.8221C14.1957 33.0396 14.5017 33.3389 14.7004 33.7201C14.899 34.1012 14.9983 34.5348 14.9983 35.0206C14.9983 35.5065 14.899 35.9373 14.7004 36.3131C14.5017 36.6889 14.1971 36.9842 13.7864 37.199C13.3757 37.411 12.8509 37.5171 12.212 37.5171H9.95714V36.6151H12.1798C12.62 36.6151 12.9743 36.5507 13.2428 36.4219C13.5139 36.293 13.7099 36.1105 13.8307 35.8742C13.9541 35.6353 14.0159 35.3508 14.0159 35.0206C14.0159 34.6904 13.9541 34.4019 13.8307 34.1549C13.7072 33.908 13.5099 33.7174 13.2388 33.5832C12.9676 33.4463 12.6093 33.3778 12.1637 33.3778H10.4081V40.7383H9.40953ZM13.2911 37.0339L15.3205 40.7383H14.1608L12.1637 37.0339H13.2911ZM19.2071 40.7383H16.6623V32.492H19.3198C20.1197 32.492 20.8043 32.6571 21.3733 32.9872C21.9424 33.3147 22.3786 33.7858 22.682 34.4005C22.9853 35.0126 23.1369 35.7454 23.1369 36.599C23.1369 37.458 22.9839 38.1975 22.6779 38.8176C22.3719 39.435 21.9263 39.9102 21.3411 40.243C20.7559 40.5732 20.0446 40.7383 19.2071 40.7383ZM17.6609 39.8524H19.1426C19.8245 39.8524 20.3895 39.7209 20.8378 39.4578C21.2861 39.1948 21.6203 38.8203 21.8404 38.3344C22.0605 37.8486 22.1706 37.2701 22.1706 36.599C22.1706 35.9333 22.0619 35.3602 21.8444 34.8797C21.627 34.3965 21.3022 34.0261 20.87 33.7684C20.4378 33.508 19.8996 33.3778 19.2554 33.3778H17.6609V39.8524Z" fill="white"/>
<path d="M110.721 27.25H101.82C101.051 27.25 100.342 27.66 99.957 28.3255L95.5066 36.0341C95.1228 36.6996 95.1228 37.5197 95.5066 38.1852L99.957 45.8938C100.341 46.5593 101.051 46.9694 101.82 46.9694H110.721C111.489 46.9694 112.199 46.5593 112.584 45.8938L117.034 38.1852C117.418 37.5197 117.418 36.6996 117.034 36.0341L112.584 28.3255C112.199 27.66 111.489 27.25 110.721 27.25Z" fill="white"/>
<path d="M65.6057 39.1253V38.3039L69.2295 32.5701H69.8255V33.8425H69.4228L66.6848 38.175V38.2394H71.5649V39.1253H65.6057ZM69.4872 40.8164V38.8756V38.4931V32.5701H70.4375V40.8164H69.4872ZM72.7678 33.4559V32.5701H78.9526V33.4559H76.3595V40.8164H75.3609V33.4559H72.7678ZM80.4937 40.8164V32.5701H81.4923V36.2423H85.8893V32.5701H86.8878V40.8164H85.8893V37.1281H81.4923V40.8164H80.4937Z" fill="white"/>
<path d="M41.7727 0.824219C36.3277 0.824219 31.9141 5.23784 31.9141 10.6828C31.9141 16.1289 36.3277 20.5425 41.7727 20.5425C47.2177 20.5425 51.6324 16.1289 51.6324 10.6828C51.6324 5.23784 47.2177 0.824219 41.7727 0.824219ZM48.0209 8.04813L45.975 13.6035C45.9151 13.7644 45.7616 13.8716 45.5891 13.8716H37.8837C37.7113 13.8716 37.5567 13.7644 37.4978 13.6035L35.4519 8.04813C35.3531 7.77898 35.5518 7.49406 35.8377 7.49406H37.9247C38.1108 7.49406 38.2727 7.61917 38.3211 7.79896L39.302 11.4367H39.3283L40.3712 7.79265C40.4217 7.61602 40.5836 7.49406 40.7665 7.49406H42.7052C42.8892 7.49406 43.0501 7.61602 43.1006 7.79265L44.1435 11.4367H44.1698L45.1507 7.79896C45.1991 7.61917 45.362 7.49406 45.5481 7.49406H47.6351C47.9211 7.49406 48.1198 7.77898 48.0209 8.04813Z" fill="white"/>
<path d="M4.09647 6.14431V14.3906H3.09789V7.19121H3.04957L1.03631 8.52801V7.51333L3.09789 6.14431H4.09647ZM11.1227 8.20589C11.0744 7.79787 10.8785 7.48112 10.5349 7.25563C10.1913 7.03015 9.76983 6.9174 9.27055 6.9174C8.90547 6.9174 8.58604 6.97646 8.31223 7.09457C8.04111 7.21268 7.82905 7.37508 7.67604 7.58178C7.52572 7.78847 7.45056 8.02335 7.45056 8.28642C7.45056 8.50654 7.5029 8.69578 7.60759 8.85416C7.71497 9.00985 7.85187 9.14004 8.0183 9.24473C8.18473 9.34674 8.35921 9.43129 8.54175 9.4984C8.72428 9.56283 8.89205 9.61517 9.04506 9.65544L9.88258 9.88092C10.0973 9.93729 10.3362 10.0151 10.5993 10.1145C10.865 10.2138 11.1187 10.3493 11.3603 10.5211C11.6046 10.6903 11.8059 10.9077 11.9643 11.1734C12.1227 11.4392 12.2019 11.7653 12.2019 12.1519C12.2019 12.5975 12.0851 13.0001 11.8515 13.3598C11.6207 13.7195 11.2825 14.0054 10.8369 14.2175C10.3939 14.4295 9.85573 14.5356 9.22223 14.5356C8.63167 14.5356 8.1203 14.4403 7.68812 14.2497C7.25863 14.0591 6.9204 13.7934 6.67344 13.4524C6.42916 13.1115 6.29092 12.7156 6.25871 12.2646H7.2895C7.31634 12.576 7.42103 12.8337 7.60357 13.0377C7.78879 13.239 8.02232 13.3894 8.30418 13.4887C8.58872 13.5853 8.89474 13.6336 9.22223 13.6336C9.6034 13.6336 9.94566 13.5719 10.249 13.4484C10.5523 13.3223 10.7926 13.1478 10.9697 12.925C11.1469 12.6995 11.2355 12.4364 11.2355 12.1358C11.2355 11.862 11.159 11.6392 11.006 11.4674C10.853 11.2956 10.6516 11.156 10.402 11.0486C10.1524 10.9412 9.88258 10.8473 9.59267 10.7668L8.57798 10.4768C7.93374 10.2916 7.42372 10.0272 7.04791 9.68362C6.6721 9.34003 6.48419 8.8904 6.48419 8.33474C6.48419 7.87303 6.60902 7.47038 6.85866 7.12678C7.11099 6.7805 7.44922 6.51207 7.87334 6.32148C8.30015 6.12821 8.77663 6.03157 9.30276 6.03157C9.83426 6.03157 10.3067 6.12686 10.7201 6.31745C11.1335 6.50536 11.461 6.76305 11.7026 7.09054C11.9468 7.41803 12.0757 7.78982 12.0891 8.20589H11.1227ZM13.3927 7.03015V6.14431H19.5774V7.03015H16.9844V14.3906H15.9858V7.03015H13.3927Z" fill="white"/>
</svg>
