<svg width="225" height="225" viewBox="0 0 225 225" fill="none" xmlns="http://www.w3.org/2000/svg">
<path d="M36.0869 80.8028C34.7185 74.639 34.9286 68.2294 36.6977 62.1685C38.4668 56.1075 41.7376 50.5913 46.2069 46.1314C50.6762 41.6715 56.1992 38.4123 62.2638 36.6559C68.3285 34.8995 74.7385 34.7028 80.8994 36.084C84.2904 30.7806 88.9619 26.4162 94.4833 23.393C100.005 20.3698 106.198 18.7852 112.493 18.7852C118.788 18.7852 124.982 20.3698 130.503 23.393C136.024 26.4162 140.696 30.7806 144.087 36.084C150.257 34.6968 156.678 34.8926 162.752 36.6532C168.827 38.4139 174.357 41.6822 178.829 46.1542C183.301 50.6262 186.57 56.1566 188.33 62.2309C190.091 68.3053 190.287 74.7262 188.899 80.8965C194.203 84.2876 198.567 88.9591 201.59 94.4805C204.614 100.002 206.198 106.195 206.198 112.49C206.198 118.785 204.614 124.979 201.59 130.5C198.567 136.022 194.203 140.693 188.899 144.084C190.281 150.245 190.084 156.655 188.328 162.72C186.571 168.784 183.312 174.307 178.852 178.777C174.392 183.246 168.876 186.517 162.815 188.286C156.754 190.055 150.344 190.265 144.181 188.897C140.794 194.22 136.119 198.603 130.588 201.64C125.057 204.677 118.85 206.269 112.54 206.269C106.23 206.269 100.023 204.677 94.492 201.64C88.9612 198.603 84.286 194.22 80.8994 188.897C74.7385 190.278 68.3285 190.081 62.2638 188.325C56.1992 186.568 50.6762 183.309 46.2069 178.849C41.7376 174.389 38.4668 168.873 36.6977 162.812C34.9286 156.751 34.7185 150.342 36.0869 144.178C30.7427 140.796 26.3408 136.117 23.2905 130.577C20.2402 125.036 18.6406 118.815 18.6406 112.49C18.6406 106.166 20.2402 99.9441 23.2905 94.4039C26.3408 88.8637 30.7427 84.1849 36.0869 80.8028Z" stroke="#B2B2B2" stroke-width="18.75" stroke-linecap="round" stroke-linejoin="round"/>
<path d="M112.5 75V112.5" stroke="#B2B2B2" stroke-width="18.75" stroke-linecap="round" stroke-linejoin="round"/>
<path d="M112.5 150H112.593" stroke="#B2B2B2" stroke-width="18.75" stroke-linecap="round" stroke-linejoin="round"/>
</svg>
