<svg width="135" height="56" viewBox="0 0 135 56" fill="none" xmlns="http://www.w3.org/2000/svg">
<path d="M33.8547 23.061C38.799 23.061 42.8071 19.0529 42.8071 14.1086C42.8071 9.16437 38.799 5.15625 33.8547 5.15625C28.9105 5.15625 24.9023 9.16437 24.9023 14.1086C24.9023 19.0529 28.9105 23.061 33.8547 23.061Z" fill="white"/>
<path d="M104.736 5.15625H96.6538C95.956 5.15625 95.3116 5.52826 94.9627 6.13253L90.9218 13.1314C90.5729 13.7356 90.5729 14.4807 90.9218 15.0849L94.9627 22.0838C95.3116 22.688 95.956 23.06 96.6538 23.06H104.736C105.433 23.06 106.078 22.688 106.427 22.0838L110.467 15.0849C110.816 14.4807 110.816 13.7356 110.467 13.1314L106.427 6.13253C106.078 5.52826 105.433 5.15625 104.736 5.15625Z" fill="white"/>
<path d="M40.8653 48.4399H26.8676C25.7888 48.4399 24.9141 47.5652 24.9141 46.4864V32.4887C24.9141 31.4099 25.7888 30.5352 26.8676 30.5352H40.8653C41.9441 30.5352 42.8188 31.4099 42.8188 32.4887V46.4864C42.8188 47.5652 41.9441 48.4399 40.8653 48.4399Z" fill="white"/>
<path d="M100.283 31.219L90.7463 47.7363C90.5683 48.045 90.7905 48.4301 91.1464 48.4301H110.219C110.574 48.4301 110.797 48.045 110.619 47.7363L101.082 31.219C100.905 30.9114 100.461 30.9114 100.283 31.219Z" fill="white"/>
<path d="M63.2667 21.5948L63.9776 26.9205C64.1495 28.1753 64.3224 30.6678 64.4944 31.9407H64.5376C64.6673 30.3983 64.8392 28.8741 64.99 27.3499L65.6788 21.5938H67.9621L66.1533 34.3608H62.7077L60.9844 21.5948H63.2667Z" fill="white"/>
<path d="M70.9552 32.3039C70.9552 32.9494 71.1925 33.0931 71.6661 33.0931C72.1185 33.0931 72.3548 32.9494 72.3548 32.3039V30.9586C72.3548 29.1659 68.6719 27.4084 68.6719 25.3282V23.4993C68.6719 21.8313 70.2444 21.3477 71.6439 21.3477C73.0656 21.3477 74.6371 21.8313 74.6371 23.4993V26.1888H72.3558V23.6602C72.3558 23.0147 72.1185 22.8709 71.6671 22.8709C71.1935 22.8709 70.9562 23.0147 70.9562 23.6602V25.2377C70.9562 26.1526 74.6391 28.9136 74.6391 30.2045V32.4637C74.6391 34.1318 73.0666 34.6154 71.646 34.6154C70.2464 34.6154 68.6739 34.1318 68.6739 32.4637V29.5229H70.9572V32.3039H70.9552Z" fill="white"/>
<path d="M134.697 24.7912L129.145 32.3269C128.829 32.7572 128.185 32.7572 127.868 32.3269L122.316 24.7912C121.93 24.2673 122.304 23.5273 122.955 23.5273H134.059C134.708 23.5273 135.082 24.2673 134.697 24.7912Z" fill="white"/>
<path d="M13.2129 31.3858L7.66085 23.8501C7.34414 23.4198 6.70066 23.4198 6.38395 23.8501L0.831936 31.3858C0.445849 31.9097 0.819871 32.6497 1.47039 32.6497H12.5744C13.2249 32.6497 13.599 31.9097 13.2129 31.3858Z" fill="white"/>
<path d="M122.658 53.7734C120.647 53.7734 118.636 53.7734 116.625 53.7734C111.436 53.7734 106.246 53.7734 101.057 53.7734C93.9535 53.7734 86.8501 53.7734 79.7467 53.7734C71.9948 53.7734 64.2429 53.7734 56.49 53.7734C49.3544 53.7734 42.2178 53.7734 35.0822 53.7734C29.8268 53.7734 24.5724 53.7734 19.317 53.7734C17.2086 53.7734 15.0982 53.7995 12.9888 53.7734C10.7889 53.7462 8.84139 52.2763 8.28438 50.1327C8.11848 49.4953 8.13155 48.8598 8.13155 48.2103C8.13155 46.0336 8.13155 43.8568 8.13155 41.68C8.13155 34.3122 8.13155 26.9454 8.13155 19.5775C8.13155 16.5592 8.13155 13.5419 8.13155 10.5236C8.13155 9.64384 8.13155 8.76408 8.13155 7.88432C8.13155 7.3625 8.10038 6.81253 8.18082 6.29674C8.5478 3.92894 10.613 2.20563 12.9848 2.17546C13.1296 2.17345 13.2754 2.17546 13.4201 2.17546C14.4708 2.17546 15.5205 2.17546 16.5712 2.17546C21.1178 2.17546 25.6643 2.17546 30.2119 2.17546C36.9353 2.17546 43.6586 2.17546 50.3819 2.17546C58.0926 2.17546 65.8033 2.17546 73.514 2.17546C80.917 2.17546 88.319 2.17546 95.722 2.17546C101.552 2.17546 107.381 2.17546 113.211 2.17546C116.203 2.17546 119.194 2.17546 122.186 2.17546C122.342 2.17546 122.499 2.17345 122.655 2.17546C124.98 2.20362 126.984 3.83946 127.431 6.13487C127.538 6.68182 127.511 7.25291 127.511 7.80992C127.511 8.66756 127.511 9.5252 127.511 10.3828C127.511 17.2148 127.511 24.0457 127.511 30.8776C127.511 36.6317 127.511 42.3848 127.511 48.1389C127.511 48.6175 127.538 49.1182 127.473 49.5918C127.142 51.9897 125.045 53.7392 122.658 53.7734C121.365 53.7915 121.361 55.8024 122.658 55.7843C125.534 55.743 128.081 53.9755 129.099 51.2819C129.454 50.3428 129.521 49.3625 129.521 48.3722C129.521 46.2658 129.521 44.1594 129.521 42.053C129.521 34.6359 129.521 27.2188 129.521 19.8017C129.521 16.709 129.521 13.6163 129.521 10.5226C129.521 9.09889 129.639 7.60984 129.461 6.19218C129.009 2.59071 125.92 0.164594 122.376 0.164594C121.411 0.164594 120.446 0.164594 119.48 0.164594C115.008 0.164594 110.536 0.164594 106.063 0.164594C99.2823 0.164594 92.5016 0.164594 85.721 0.164594C77.9369 0.164594 70.1528 0.164594 62.3687 0.164594C54.8501 0.164594 47.3315 0.164594 39.8138 0.164594C33.9481 0.164594 28.0824 0.164594 22.2167 0.164594C19.2678 0.164594 16.3188 0.164594 13.3699 0.164594C13.1286 0.164594 12.8863 0.160572 12.646 0.174649C9.79555 0.337529 7.3081 2.24685 6.43538 4.97057C5.93166 6.54207 6.12068 8.41017 6.12068 10.042C6.12068 16.9071 6.12068 23.7712 6.12068 30.6363C6.12068 36.4699 6.12068 42.3044 6.12068 48.1379C6.12068 48.8287 6.12068 49.4983 6.24133 50.186C6.71892 52.9057 8.9922 55.1921 11.7179 55.6626C12.5977 55.8144 13.4815 55.7833 14.3693 55.7833C18.0733 55.7833 21.7773 55.7833 25.4813 55.7833C31.8518 55.7833 38.2222 55.7833 44.5926 55.7833C52.2541 55.7833 59.9155 55.7833 67.5769 55.7833C75.2514 55.7833 82.9269 55.7833 90.6014 55.7833C96.9989 55.7833 103.396 55.7833 109.793 55.7833C113.578 55.7833 117.363 55.7833 121.147 55.7833C121.65 55.7833 122.153 55.7833 122.656 55.7833C123.952 55.7843 123.954 53.7734 122.658 53.7734Z" fill="white"/>
</svg>
