<svg width="87" height="67" viewBox="0 0 87 67" fill="none" xmlns="http://www.w3.org/2000/svg">
<path d="M10.6795 66.3395C16.0793 66.3395 20.4566 61.9621 20.4566 56.5623C20.4566 51.1625 16.0793 46.7852 10.6795 46.7852C5.27972 46.7852 0.902344 51.1625 0.902344 56.5623C0.902344 61.9621 5.27972 66.3395 10.6795 66.3395Z" fill="white"/>
<path d="M43.1053 28.1793C48.505 28.1793 52.8824 23.8019 52.8824 18.4022C52.8824 13.0024 48.505 8.625 43.1053 8.625C37.7055 8.625 33.3281 13.0024 33.3281 18.4022C33.3281 23.8019 37.7055 28.1793 43.1053 28.1793Z" fill="white"/>
<path d="M75.0694 47.5448L64.6541 65.5851C64.4602 65.9219 64.7031 66.3421 65.091 66.3421H85.9226C86.3115 66.3421 86.5544 65.9209 86.3595 65.5851L75.9442 47.5448C75.7503 47.209 75.2644 47.209 75.0694 47.5448Z" fill="white"/>
<path d="M11.7665 42.8053C11.7665 41.4978 11.7665 40.1902 11.7665 38.8827C11.7665 37.5325 11.5215 35.9226 12.8769 35.1041C13.7559 34.5734 15.0947 34.7642 16.0863 34.7642C18.1414 34.7642 20.1965 34.7642 22.2506 34.7642C25.2556 34.7642 28.2616 34.7642 31.2666 34.7642C34.7741 34.7642 38.2817 34.7642 41.7892 34.7642C45.3343 34.7642 48.8794 34.7642 52.4245 34.7642C55.5942 34.7642 58.765 34.7642 61.9347 34.7642C64.2641 34.7642 66.5934 34.7642 68.9227 34.7642C69.9633 34.7642 71.0039 34.7517 72.0445 34.7642C73.3968 34.7809 74.4082 35.8089 74.4187 37.1582C74.4291 38.6106 74.4187 40.0641 74.4187 41.5176C74.4187 41.9471 74.4187 42.3767 74.4187 42.8053C74.4187 44.1472 76.504 44.1493 76.504 42.8053C76.504 41.4654 76.504 40.1266 76.504 38.7868C76.504 38.2269 76.5124 37.667 76.504 37.1071C76.4842 35.8725 75.9952 34.6599 75.0641 33.8299C73.6784 32.5944 72.0831 32.6788 70.3971 32.6788C68.367 32.6788 66.3369 32.6788 64.3068 32.6788C61.2726 32.6788 58.2395 32.6788 55.2053 32.6788C51.6196 32.6788 48.0328 32.6788 44.447 32.6788C40.8018 32.6788 37.1566 32.6788 33.5125 32.6788C30.3031 32.6788 27.0948 32.6788 23.8855 32.6788C21.5624 32.6788 19.2383 32.6788 16.9152 32.6788C15.9758 32.6788 15.0353 32.6632 14.0958 32.6788C11.6403 32.7195 9.71659 34.6776 9.68114 37.1248C9.66029 38.5741 9.68114 40.0245 9.68114 41.4738C9.68114 41.918 9.68114 42.3621 9.68114 42.8063C9.68114 44.1472 11.7665 44.1493 11.7665 42.8053Z" fill="white"/>
<path d="M37.4509 48.6534L38.332 55.2556C38.5457 56.8113 38.7595 59.9017 38.9732 61.4793H39.0264C39.187 59.5681 39.3997 57.6777 39.5873 55.7884L40.4413 48.6523H43.2722L41.0294 64.4801H36.7575L34.6211 48.6523H37.4509V48.6534Z" fill="white"/>
<path d="M46.9832 61.9217C46.9832 62.7214 47.2772 62.8997 47.8643 62.8997C48.4252 62.8997 48.7182 62.7214 48.7182 61.9217V60.2545C48.7182 58.0315 44.1523 55.8534 44.1523 53.2748V51.007C44.1523 48.9394 46.1011 48.3398 47.8371 48.3398C49.5993 48.3398 51.548 48.9404 51.548 51.007V54.3415H48.7182V51.2072C48.7182 50.4075 48.4242 50.2292 47.8643 50.2292C47.2772 50.2292 46.9832 50.4075 46.9832 51.2072V53.1633C46.9832 54.2966 51.5491 57.7208 51.5491 59.3202V62.1209C51.5491 64.1885 49.6003 64.788 47.8382 64.788C46.1032 64.788 44.1534 64.1874 44.1534 62.1209V58.4767H46.9832V61.9217Z" fill="white"/>
<path d="M41.8635 6.38736H39.1286C38.9576 6.38736 38.8054 6.281 38.7459 6.12043L36.7169 0.610946C36.6189 0.345064 36.8159 0.0625 37.0995 0.0625H39.1692C39.3538 0.0625 39.5154 0.186578 39.5634 0.363833L40.5362 3.97148H40.5623L41.5966 0.358619C41.6466 0.18345 41.8062 0.0635425 41.9886 0.0635425H43.9113C44.0938 0.0635425 44.2533 0.184493 44.3034 0.358619L45.3377 3.97253H45.3638L46.3366 0.364875C46.3845 0.186578 46.5462 0.0635425 46.7307 0.0635425H48.8004C49.084 0.0635425 49.2811 0.346107 49.1831 0.611989L47.154 6.12148C47.0946 6.28205 46.9424 6.3884 46.7714 6.3884H44.0364H41.8635V6.38736Z" fill="white"/>
</svg>
