<svg width="152" height="72" viewBox="0 0 152 72" fill="none" xmlns="http://www.w3.org/2000/svg">
<path d="M41.8547 31.1821C46.799 31.1821 50.8071 27.174 50.8071 22.2297C50.8071 17.2855 46.799 13.2773 41.8547 13.2773C36.9105 13.2773 32.9023 17.2855 32.9023 22.2297C32.9023 27.174 36.9105 31.1821 41.8547 31.1821Z" fill="white"/>
<path d="M112.736 13.2773H104.654C103.956 13.2773 103.312 13.6494 102.963 14.2536L98.9218 21.2525C98.5729 21.8567 98.5729 22.6017 98.9218 23.206L102.963 30.2048C103.312 30.8091 103.956 31.1811 104.654 31.1811H112.736C113.433 31.1811 114.078 30.8091 114.427 30.2048L118.467 23.206C118.816 22.6017 118.816 21.8567 118.467 21.2525L114.427 14.2536C114.078 13.6494 113.433 13.2773 112.736 13.2773Z" fill="white"/>
<path d="M48.8614 56.561H34.8637C33.7849 56.561 32.9102 55.6863 32.9102 54.6075V40.6098C32.9102 39.531 33.7849 38.6562 34.8637 38.6562H48.8614C49.9402 38.6562 50.8149 39.531 50.8149 40.6098V54.6075C50.8149 55.6863 49.9402 56.561 48.8614 56.561Z" fill="white"/>
<path d="M108.283 39.3401L98.7463 55.8574C98.5683 56.1661 98.7905 56.5512 99.1464 56.5512H118.219C118.574 56.5512 118.797 56.1661 118.619 55.8574L109.082 39.3401C108.905 39.0325 108.461 39.0325 108.283 39.3401Z" fill="white"/>
<path d="M71.2667 29.7159L71.9776 35.0416C72.1495 36.2964 72.3224 38.7889 72.4944 40.0618H72.5376C72.6673 38.5194 72.8392 36.9952 72.99 35.471L73.6788 29.7148H75.9621L74.1533 42.4819H70.7077L68.9844 29.7159H71.2667Z" fill="white"/>
<path d="M78.9552 40.425C78.9552 41.0705 79.1925 41.2142 79.6661 41.2142C80.1185 41.2142 80.3548 41.0705 80.3548 40.425V39.0797C80.3548 37.287 76.6719 35.5295 76.6719 33.4493V31.6204C76.6719 29.9524 78.2444 29.4688 79.6439 29.4688C81.0656 29.4688 82.6371 29.9524 82.6371 31.6204V34.3099H80.3558V31.7813C80.3558 31.1358 80.1185 30.992 79.6671 30.992C79.1935 30.992 78.9562 31.1358 78.9562 31.7813V33.3588C78.9562 34.2737 82.6391 37.0347 82.6391 38.3256V40.5848C82.6391 42.2529 81.0666 42.7365 79.646 42.7365C78.2464 42.7365 76.6739 42.2529 76.6739 40.5848V37.6439H78.9572V40.425H78.9552Z" fill="white"/>
<path d="M142.697 32.9123L137.145 40.448C136.829 40.8783 136.185 40.8783 135.868 40.448L130.316 32.9123C129.93 32.3884 130.304 31.6484 130.955 31.6484H142.059C142.708 31.6484 143.082 32.3884 142.697 32.9123Z" fill="white"/>
<path d="M21.2129 39.5069L15.6609 31.9712C15.3441 31.5409 14.7007 31.5409 14.3839 31.9712L8.83194 39.5069C8.44585 40.0308 8.81987 40.7708 9.47039 40.7708H20.5744C21.2249 40.7708 21.599 40.0308 21.2129 39.5069Z" fill="white"/>
<path d="M130.658 61.8945C128.647 61.8945 126.636 61.8945 124.625 61.8945C119.436 61.8945 114.246 61.8945 109.057 61.8945C101.953 61.8945 94.8501 61.8945 87.7467 61.8945C79.9948 61.8945 72.2429 61.8945 64.49 61.8945C57.3544 61.8945 50.2178 61.8945 43.0822 61.8945C37.8268 61.8945 32.5724 61.8945 27.317 61.8945C25.2086 61.8945 23.0982 61.9206 20.9888 61.8945C18.7889 61.8673 16.8414 60.3974 16.2844 58.2538C16.1185 57.6164 16.1316 56.9809 16.1316 56.3314C16.1316 54.1546 16.1316 51.9779 16.1316 49.8011C16.1316 42.4333 16.1316 35.0665 16.1316 27.6986C16.1316 24.6803 16.1316 21.663 16.1316 18.6447C16.1316 17.7649 16.1316 16.8852 16.1316 16.0054C16.1316 15.4836 16.1004 14.9336 16.1808 14.4178C16.5478 12.05 18.613 10.3267 20.9848 10.2966C21.1296 10.2945 21.2754 10.2966 21.4201 10.2966C22.4708 10.2966 23.5205 10.2966 24.5712 10.2966C29.1178 10.2966 33.6643 10.2966 38.2119 10.2966C44.9353 10.2966 51.6586 10.2966 58.3819 10.2966C66.0926 10.2966 73.8033 10.2966 81.514 10.2966C88.917 10.2966 96.319 10.2966 103.722 10.2966C109.552 10.2966 115.381 10.2966 121.211 10.2966C124.203 10.2966 127.194 10.2966 130.186 10.2966C130.342 10.2966 130.499 10.2945 130.655 10.2966C132.98 10.3247 134.984 11.9606 135.431 14.256C135.538 14.8029 135.511 15.374 135.511 15.931C135.511 16.7887 135.511 17.6463 135.511 18.5039C135.511 25.3359 135.511 32.1668 135.511 38.9987C135.511 44.7528 135.511 50.5059 135.511 56.26C135.511 56.7386 135.538 57.2393 135.473 57.7129C135.142 60.1108 133.045 61.8603 130.658 61.8945C129.365 61.9126 129.361 63.9235 130.658 63.9054C133.534 63.8641 136.081 62.0966 137.099 59.403C137.454 58.4639 137.521 57.4836 137.521 56.4933C137.521 54.3869 137.521 52.2805 137.521 50.1741C137.521 42.757 137.521 35.3399 137.521 27.9228C137.521 24.8301 137.521 21.7374 137.521 18.6437C137.521 17.22 137.639 15.7309 137.461 14.3133C137.009 10.7118 133.92 8.28569 130.376 8.28569C129.411 8.28569 128.446 8.28569 127.48 8.28569C123.008 8.28569 118.536 8.28569 114.063 8.28569C107.282 8.28569 100.502 8.28569 93.721 8.28569C85.9369 8.28569 78.1528 8.28569 70.3687 8.28569C62.8501 8.28569 55.3315 8.28569 47.8138 8.28569C41.9481 8.28569 36.0824 8.28569 30.2167 8.28569C27.2678 8.28569 24.3188 8.28569 21.3699 8.28569C21.1286 8.28569 20.8863 8.28167 20.646 8.29574C17.7955 8.45862 15.3081 10.3679 14.4354 13.0917C13.9317 14.6632 14.1207 16.5313 14.1207 18.1631C14.1207 25.0282 14.1207 31.8923 14.1207 38.7574C14.1207 44.5909 14.1207 50.4255 14.1207 56.259C14.1207 56.9498 14.1207 57.6194 14.2413 58.3071C14.7189 61.0268 16.9922 63.3132 19.7179 63.7837C20.5977 63.9355 21.4815 63.9044 22.3693 63.9044C26.0733 63.9044 29.7773 63.9044 33.4813 63.9044C39.8518 63.9044 46.2222 63.9044 52.5926 63.9044C60.2541 63.9044 67.9155 63.9044 75.5769 63.9044C83.2514 63.9044 90.9269 63.9044 98.6014 63.9044C104.999 63.9044 111.396 63.9044 117.793 63.9044C121.578 63.9044 125.363 63.9044 129.147 63.9044C129.65 63.9044 130.153 63.9044 130.656 63.9044C131.952 63.9054 131.954 61.8945 130.658 61.8945Z" fill="white"/>
</svg>
