<svg width="283" height="79" viewBox="0 0 283 79" fill="none" xmlns="http://www.w3.org/2000/svg">
<rect width="282.342" height="78.8898" fill="#161616"/>
<path d="M91.3968 26.5254H70.0312V32.6532H91.3968V26.5254Z" fill="#D52555"/>
<path d="M91.3968 37.5166H70.0312V43.6445H91.3968V37.5166Z" fill="#D52555"/>
<path d="M91.3968 48.9297H70.0312V55.0575H91.3968V48.9297Z" fill="#D52555"/>
<path d="M119.897 39.0273V45.1552H106.748V55.0545H98.5312V39.0273H119.897Z" fill="#D52555"/>
<path d="M119.897 26.5254H98.5312V32.6532H119.897V26.5254Z" fill="#D52555"/>
<path d="M148.397 26.5254H127.031V32.6532H148.397V26.5254Z" fill="#D52555"/>
<path d="M148.397 37.5166H127.031V43.6445H148.397V37.5166Z" fill="#D52555"/>
<path d="M148.397 48.9297H127.031V55.0575H148.397V48.9297Z" fill="#D52555"/>
<path d="M174.07 26.5254H181.236V40.652L174.07 31.777V26.5254Z" fill="#D52555"/>
<path d="M162.689 54.6579H155.523V40.5312L162.689 49.4122V54.6579Z" fill="#D52555"/>
<path d="M155.523 30.2376V26.5254H161.925L180.949 51.0427V54.6602H175.158L155.523 30.2376Z" fill="#D52555"/>
<path d="M188.401 32.3513C188.35 30.4093 188.39 28.4674 188.39 26.5254C190.25 26.5313 192.111 26.5372 193.966 26.5491C194.899 26.5491 195.832 26.5668 196.765 26.5787C197.698 26.5905 198.614 26.6083 199.536 26.5964C200.458 26.5846 201.368 26.555 202.285 26.5787C202.726 26.5905 203.167 26.6142 203.608 26.6616C208.958 27.2181 214.008 31.0961 215.693 36.5372C217.593 42.6591 214.37 49.0711 209.529 52.5525C208.217 53.4998 206.679 54.3583 205.056 54.453C203.286 54.5596 201.482 54.4944 199.706 54.5181C195.968 54.5655 192.23 54.6129 188.491 54.6661H188.378C188.378 50.5276 188.378 46.3891 188.378 42.2506C188.378 42.1736 188.378 40.8296 188.378 40.8296C189.803 40.8237 191.223 40.8178 192.648 40.8059C193.457 40.8059 194.277 40.7527 195.08 40.7941C195.685 40.8237 195.561 41.0546 195.561 41.7236C195.561 43.6834 195.572 45.6431 195.577 47.6088C195.577 47.7864 195.577 47.964 195.64 48.1298C195.77 48.485 196.149 48.4968 196.465 48.4909C198.677 48.4436 200.978 48.5857 203.15 48.0883C204.496 47.7805 205.78 46.8095 206.679 45.7319L206.735 45.6609C209.274 42.5762 208.93 38.041 206.339 35.1221C204.841 33.4348 202.884 32.7776 200.729 32.6414C196.629 32.3809 192.495 32.594 188.384 32.6414C188.384 32.5467 188.384 32.4579 188.378 32.3631L188.401 32.3513Z" fill="#D52555"/>
<path d="M223.477 32.41C223.46 31.8831 223.449 30.6753 223.443 30.5687C223.426 29.6688 223.42 28.7629 223.403 27.863C223.403 27.8334 223.403 27.8038 223.403 27.7742C223.403 27.709 223.386 26.5367 223.381 26.5367C227.068 26.5367 230.755 26.5367 234.442 26.5308C236.614 26.5308 238.842 26.4065 240.878 27.3479C242.145 27.934 243.304 28.6267 244.333 29.6214C245.47 30.7226 246.392 32.0725 246.997 33.5645C247.223 34.1211 247.229 34.8848 247.263 35.4887C247.359 37.336 247.138 39.2306 246.454 40.9416C245.617 43.0375 244.085 44.6953 242.156 45.7196C244.068 48.6977 245.973 51.6817 247.885 54.6597C245.244 54.6597 242.608 54.6597 239.967 54.6597L234.985 47.0162H230.71V54.6597H223.375V41.1311H234.878C235.585 41.1311 236.342 41.2199 237.004 40.9476C238.78 40.2134 240.103 38.5142 239.73 36.4479C239.509 35.2223 238.859 34.1447 237.852 33.4639C237.485 33.2152 237.083 33.0257 236.67 32.8837C236.077 32.6824 235.5 32.6646 234.878 32.6468C231.943 32.558 228.996 32.6468 226.061 32.6468H223.482C223.482 32.6468 223.471 32.5521 223.465 32.3982L223.477 32.41Z" fill="#D52555"/>
<path d="M53.7304 23.5917H0.0234375V12.1934H34.1804C34.8564 12.1934 35.5218 12.1934 36.1872 12.2926C36.8526 12.3918 37.5074 12.5792 38.1517 12.7556C38.2784 12.7886 38.3946 12.8217 38.5213 12.8658C38.627 12.8989 38.7643 12.9099 38.8699 12.965C40.2535 13.3949 41.616 13.913 42.9362 14.5304C44.2036 15.1366 45.4393 15.8311 46.6117 16.6138C47.7629 17.3855 48.8508 18.2343 49.8753 19.1823C50.8892 20.1083 51.8293 21.1114 52.6953 22.1917C53.0544 22.6437 53.403 23.1067 53.7304 23.5917Z" fill="#D62555"/>
<path d="M58.9139 45.6621C57.3402 58.725 47.6762 68.9438 33.0902 70.5312C22.3066 71.6997 11.3117 70.7297 0 70.7297V45.6621H15.8005C15.8533 48.1645 15.8216 53.7754 15.8216 54.3928C15.8111 55.7046 15.7371 57.0494 15.8111 58.3612C19.2859 58.1077 22.7819 57.9975 26.2567 57.6888C28.2001 57.5124 30.1329 57.2589 32.0446 56.829C37.5685 55.5833 41.1701 51.3392 42.353 45.6621H58.9139Z" fill="#D62555"/>
<path d="M42.2896 28.2998H0V40.2824H42.2896V28.2998Z" fill="#D62555"/>
</svg>
