<svg width="256" height="36" viewBox="0 0 256 36" fill="none" xmlns="http://www.w3.org/2000/svg">
<g clip-path="url(#clip0_5500_16091)">
<path d="M0.0803158 8.35506C0.0268499 5.99717 0.0736326 3.62486 0.0736326 1.25977C2.27242 1.26698 4.47121 1.27419 6.66331 1.28861C7.76605 1.28861 8.86878 1.31024 9.97152 1.32466C11.0743 1.33908 12.1569 1.36071 13.2463 1.34629C14.3357 1.33187 15.4117 1.29582 16.4944 1.32466C17.0157 1.33908 17.537 1.36793 18.0582 1.42561C24.3806 2.10341 30.3487 6.8264 32.3403 13.453C34.5859 20.9088 30.7765 28.718 25.0556 32.9579C23.5051 34.1116 21.6872 35.1571 19.7692 35.2725C17.6773 35.4023 15.5453 35.323 13.4468 35.3518C9.02918 35.4095 4.61156 35.4672 0.193931 35.5321H0.0736326C0.0736326 30.4918 0.0736326 25.4515 0.0736326 20.4113C0.0736326 20.3176 0.0736326 18.6807 0.0736326 18.6807C1.75781 18.6735 3.4353 18.6663 5.11948 18.6519C6.07519 18.6519 7.04426 18.587 7.99328 18.6375C8.70838 18.6735 8.56135 18.9547 8.56135 19.7695C8.56135 22.1563 8.57472 24.543 8.5814 26.9369C8.5814 27.1533 8.5814 27.3696 8.65492 27.5715C8.92225 28.3142 9.9381 27.9392 10.4794 27.9392C10.9941 27.9392 11.502 27.9392 12.0166 27.9392C13.8612 27.9392 15.7191 27.9392 17.5303 27.521C19.1209 27.1461 20.638 25.9635 21.7006 24.6512L21.7674 24.5646C24.7682 20.8079 24.3605 15.2845 21.2996 11.7297C19.5286 9.67461 17.2162 8.87423 14.6698 8.70838C9.82449 8.39111 4.93903 8.6507 0.0803158 8.70838C0.0803158 8.59301 0.0803158 8.48485 0.0736326 8.36948L0.0803158 8.35506Z" fill="#D52555"/>
<path d="M184.953 8.35506C184.892 5.98996 184.939 3.62486 184.939 1.25977C187.138 1.26698 189.337 1.27419 191.529 1.28861C192.632 1.28861 193.734 1.31024 194.837 1.32466C195.94 1.33908 197.023 1.36071 198.112 1.34629C199.201 1.33187 200.277 1.29582 201.36 1.32466C201.881 1.33908 202.403 1.36793 202.924 1.42561C209.246 2.10341 215.214 6.8264 217.206 13.453C219.451 20.9088 215.642 28.718 209.921 32.9579C208.371 34.1116 206.553 35.1571 204.635 35.2725C202.543 35.4023 200.411 35.323 198.312 35.3518C193.895 35.4095 189.477 35.4672 185.06 35.5321H184.926C184.926 30.4918 184.926 25.4515 184.926 20.4113C184.926 20.3176 184.926 18.6807 184.926 18.6807C186.61 18.6735 188.288 18.6663 189.972 18.6519C190.927 18.6519 191.896 18.587 192.845 18.6375C193.561 18.6735 193.414 18.9547 193.414 19.7695C193.414 22.1563 193.427 24.543 193.434 26.9369C193.434 27.1533 193.434 27.3696 193.507 27.5715C193.661 28.0041 194.109 28.0185 194.483 28.0113C197.096 27.9536 199.816 28.1267 202.382 27.521C203.973 27.1461 205.49 25.9635 206.553 24.6512L206.62 24.5646C209.62 20.8079 209.213 15.2845 206.152 11.7297C204.381 9.67461 202.068 8.87423 199.522 8.70838C194.677 8.39111 189.791 8.6507 184.933 8.70838C184.933 8.59301 184.933 8.48485 184.926 8.36948L184.953 8.35506Z" fill="#D52555"/>
<path d="M101.179 16.0059V23.4689H85.6404V35.5251H75.9297V16.0059H101.179Z" fill="#D52555"/>
<path d="M101.179 0.777344H75.9297V8.24038H101.179V0.777344Z" fill="#D52555"/>
<path d="M66.7805 0.777344H41.5312V8.24038H66.7805V0.777344Z" fill="#D52555"/>
<path d="M66.7805 14.1602H41.5312V21.6232H66.7805V14.1602Z" fill="#D52555"/>
<path d="M66.7805 28.0625H41.5312V35.5255H66.7805V28.0625Z" fill="#D52555"/>
<path d="M134.859 0.777344H109.609V8.24038H134.859V0.777344Z" fill="#D52555"/>
<path d="M134.859 14.1602H109.609V21.6232H134.859V14.1602Z" fill="#D52555"/>
<path d="M134.859 28.0625H109.609V35.5255H134.859V28.0625Z" fill="#D52555"/>
<path d="M226.894 8.41289C226.874 7.77115 226.86 6.30017 226.854 6.17038C226.834 5.07436 226.827 3.97113 226.807 2.8751C226.807 2.83905 226.807 2.803 226.807 2.76694C226.807 2.68763 226.787 1.25992 226.78 1.25992C231.138 1.25992 235.495 1.25992 239.853 1.25271C242.419 1.25271 245.052 1.10128 247.458 2.24778C248.955 2.96163 250.325 3.80528 251.542 5.01667C252.885 6.35786 253.974 8.00189 254.689 9.81897C254.957 10.4968 254.963 11.427 255.003 12.1624C255.117 14.4122 254.856 16.7196 254.048 18.8035C253.059 21.356 251.247 23.375 248.969 24.6225C251.227 28.2494 253.48 31.8836 255.739 35.5106C252.618 35.5106 249.503 35.5106 246.382 35.5106L240.494 26.2016H235.442V35.5106H226.773V19.0342H240.367C241.203 19.0342 242.098 19.1424 242.88 18.8107C244.979 17.9165 246.542 15.8471 246.101 13.3306C245.841 11.838 245.072 10.5256 243.883 9.69639C243.448 9.39355 242.974 9.1628 242.486 8.98975C241.784 8.74459 241.102 8.72295 240.367 8.70132C236.899 8.59316 233.417 8.70132 229.948 8.70132H226.9C226.9 8.70132 226.887 8.58595 226.88 8.39847L226.894 8.41289Z" fill="#D52555"/>
<path d="M165.953 1.25977H174.421V18.4644L165.953 7.65563V1.25977Z" fill="#D52555"/>
<path d="M152.499 35.525H144.031V18.3203L152.499 29.1363V35.525Z" fill="#D52555"/>
<path d="M144.031 5.78085V1.25977H151.597L174.079 31.1191V35.5248H167.235L144.031 5.78085Z" fill="#D52555"/>
</g>
<defs>
<clipPath id="clip0_5500_16091">
<rect width="255.694" height="34.7482" fill="white" transform="translate(0.0546875 0.777344)"/>
</clipPath>
</defs>
</svg>
