<svg width="28" height="28" viewBox="0 0 28 28" fill="none" xmlns="http://www.w3.org/2000/svg">
<path d="M4.66536 4.66797H23.332C23.9509 4.66797 24.5444 4.9138 24.9819 5.35139C25.4195 5.78897 25.6654 6.38246 25.6654 7.0013V21.0013C25.6654 21.6201 25.4195 22.2136 24.9819 22.6512C24.5444 23.0888 23.9509 23.3346 23.332 23.3346H4.66536C4.04653 23.3346 3.45303 23.0888 3.01545 22.6512C2.57786 22.2136 2.33203 21.6201 2.33203 21.0013V7.0013C2.33203 6.38246 2.57786 5.78897 3.01545 5.35139C3.45303 4.9138 4.04653 4.66797 4.66536 4.66797ZM4.66536 7.0013V21.0013H12.832V7.0013H4.66536ZM23.332 21.0013V7.0013H21.8854C22.1654 7.6313 22.107 8.24964 22.107 8.31964C22.0254 9.1013 21.477 9.91797 21.2787 10.2096L18.5604 13.1846L22.4337 13.1613L22.4454 14.5846L16.3787 14.5496L16.332 13.383C16.332 13.383 19.8904 9.61463 20.0654 9.2763C20.2287 8.94964 20.8937 7.0013 19.2487 7.0013C17.8137 7.05964 17.977 8.51797 17.977 8.51797L16.1804 8.52964C16.1804 8.52964 16.192 7.75964 16.6237 7.0013H15.1654V21.0013H18.1754L18.1637 19.998L19.2954 19.9863C19.2954 19.9863 20.357 19.7996 20.3687 18.7613C20.4154 17.5946 19.4237 17.5946 19.2487 17.5946C19.097 17.5946 18.0004 17.653 18.0004 18.6096H16.227C16.227 18.6096 16.2737 16.2063 19.2487 16.2063C22.282 16.2063 22.1187 18.563 22.1187 18.563C22.1187 18.563 22.1654 20.0213 20.8237 20.5696L21.4304 21.0013H23.332ZM10.4054 18.668H8.65536V11.9013L6.55536 12.5546V11.1196L10.2187 9.81297H10.4054V18.668Z" fill="white"/>
</svg>
