<svg width="23" height="23" viewBox="0 0 23 23" fill="none" xmlns="http://www.w3.org/2000/svg">
<path d="M4.55208 0.625C3.51056 0.625 2.51169 1.03874 1.77522 1.77522C1.03874 2.51169 0.625 3.51056 0.625 4.55208V18.4479C0.625 19.4894 1.03874 20.4883 1.77522 21.2248C2.51169 21.9613 3.51056 22.375 4.55208 22.375H18.4479C19.4894 22.375 20.4883 21.9613 21.2248 21.2248C21.9613 20.4883 22.375 19.4894 22.375 18.4479V4.55208C22.375 3.51056 21.9613 2.51169 21.2248 1.77522C20.4883 1.03874 19.4894 0.625 18.4479 0.625H4.55208ZM6.66667 6.0625C6.50643 6.0625 6.35276 6.12615 6.23946 6.23946C6.12615 6.35276 6.0625 6.50643 6.0625 6.66667V9.38542C6.0625 9.62577 5.96702 9.85628 5.79707 10.0262C5.62711 10.1962 5.3966 10.2917 5.15625 10.2917C4.9159 10.2917 4.68539 10.1962 4.51543 10.0262C4.34548 9.85628 4.25 9.62577 4.25 9.38542V6.66667C4.25 6.02573 4.50461 5.41104 4.95783 4.95783C5.41104 4.50461 6.02573 4.25 6.66667 4.25H9.38542C9.62577 4.25 9.85628 4.34548 10.0262 4.51543C10.1962 4.68539 10.2917 4.9159 10.2917 5.15625C10.2917 5.3966 10.1962 5.62711 10.0262 5.79707C9.85628 5.96702 9.62577 6.0625 9.38542 6.0625H6.66667ZM6.0625 16.3333C6.0625 16.4936 6.12615 16.6472 6.23946 16.7605C6.35276 16.8738 6.50643 16.9375 6.66667 16.9375H9.38542C9.62577 16.9375 9.85628 17.033 10.0262 17.2029C10.1962 17.3729 10.2917 17.6034 10.2917 17.8438C10.2917 18.0841 10.1962 18.3146 10.0262 18.4846C9.85628 18.6545 9.62577 18.75 9.38542 18.75H6.66667C6.02573 18.75 5.41104 18.4954 4.95783 18.0422C4.50461 17.589 4.25 16.9743 4.25 16.3333V13.6146C4.25 13.3742 4.34548 13.1437 4.51543 12.9738C4.68539 12.8038 4.9159 12.7083 5.15625 12.7083C5.3966 12.7083 5.62711 12.8038 5.79707 12.9738C5.96702 13.1437 6.0625 13.3742 6.0625 13.6146V16.3333ZM16.3333 6.0625H13.6146C13.3742 6.0625 13.1437 5.96702 12.9738 5.79707C12.8038 5.62711 12.7083 5.3966 12.7083 5.15625C12.7083 4.9159 12.8038 4.68539 12.9738 4.51543C13.1437 4.34548 13.3742 4.25 13.6146 4.25H16.3333C16.9743 4.25 17.589 4.50461 18.0422 4.95783C18.4954 5.41104 18.75 6.02573 18.75 6.66667V9.38542C18.75 9.62577 18.6545 9.85628 18.4846 10.0262C18.3146 10.1962 18.0841 10.2917 17.8438 10.2917C17.6034 10.2917 17.3729 10.1962 17.2029 10.0262C17.033 9.85628 16.9375 9.62577 16.9375 9.38542V6.66667C16.9375 6.50643 16.8738 6.35276 16.7605 6.23946C16.6472 6.12615 16.4936 6.0625 16.3333 6.0625ZM16.9375 16.3333V13.6146C16.9375 13.3742 17.033 13.1437 17.2029 12.9738C17.3729 12.8038 17.6034 12.7083 17.8438 12.7083C18.0841 12.7083 18.3146 12.8038 18.4846 12.9738C18.6545 13.1437 18.75 13.3742 18.75 13.6146V16.3333C18.75 16.9743 18.4954 17.589 18.0422 18.0422C17.589 18.4954 16.9743 18.75 16.3333 18.75H13.6146C13.3742 18.75 13.1437 18.6545 12.9738 18.4846C12.8038 18.3146 12.7083 18.0841 12.7083 17.8438C12.7083 17.6034 12.8038 17.3729 12.9738 17.2029C13.1437 17.033 13.3742 16.9375 13.6146 16.9375H16.3333C16.4936 16.9375 16.6472 16.8738 16.7605 16.7605C16.8738 16.6472 16.9375 16.4936 16.9375 16.3333Z" fill="white"/>
</svg>
